<?xml version="1.0" standalone="no"?><!DOCTYPE svg PUBLIC "-//W3C//DTD SVG 1.1//EN" "http://www.w3.org/Graphics/SVG/1.1/DTD/svg11.dtd"><svg class="icon" width="64px" height="64.00px" viewBox="0 0 1024 1024" version="1.1" xmlns="http://www.w3.org/2000/svg"><path d="M219.232 287.872l571.84-26.032h63.088l-50.72-108.32c-17.44-43.632-66.08-66.592-112.672-53.2L164.752 261.84l54.48 26.032z" fill="#333333" /><path d="M828.24 256C901.008 256 960 313.856 960 385.232v94.752L774.496 480c-61.184 0-111.248 47.712-113.104 107.12l-0.064 3.872c0 60 48.64 109.104 109.232 110.912l3.936 0.064H960v96.8C960 870.128 901.008 928 828.24 928H195.76C122.992 928 64 870.144 64 798.768V385.232C64 313.872 122.992 256 195.76 256h632.48z" fill="#FFBD27" /><path d="M768 592m-64 0a64 64 0 1 0 128 0 64 64 0 1 0-128 0Z" fill="#333333" /></svg>