<?xml version="1.0" standalone="no"?><!DOCTYPE svg PUBLIC "-//W3C//DTD SVG 1.1//EN" "http://www.w3.org/Graphics/SVG/1.1/DTD/svg11.dtd"><svg class="icon" width="64px" height="64.00px" viewBox="0 0 1024 1024" version="1.1" xmlns="http://www.w3.org/2000/svg"><path fill="#1296db" d="M512.034133 0C229.666133 0 0 229.751467 0 512c0 282.282667 229.666133 512 512.034133 512C794.299733 1024 1024 794.282667 1024 512 1024 229.751467 794.299733 0 512.034133 0zM512 547.396267a87.552 87.552 0 0 1-87.466667-87.517867A87.552 87.552 0 0 1 512 372.343467a87.637333 87.637333 0 0 1 85.828267 89.361066A87.381333 87.381333 0 0 1 512 547.396267z m11.861333 51.6096h14.5408v30.634666c16.827733-27.357867 46.472533-45.602133 80.605867-45.602133 50.090667 0 90.7264 39.202133 94.293333 88.849067h-14.506666c-3.805867-41.608533-37.870933-74.052267-79.837867-74.052267-31.163733 0-57.9584 18.141867-71.133867 44.407467h34.5088v14.7456h-58.487466v-58.9824z m190.498134 162.8672h-0.170667v-0.034134H699.733333v-30.805333c-16.861867 27.306667-46.506667 45.585067-80.64 45.585067-50.090667 0-90.7264-39.338667-94.2592-88.797867h14.472534c3.822933 41.386667 37.905067 74.018133 79.837866 74.018133 31.197867 0 57.9584-18.141867 71.133867-44.475733H655.872v-14.609067h58.504533v59.118934z m35.669333-164.232534h-25.105067v-161.6896L512 278.784l-212.9408 157.3376v253.457067c0 7.509333 8.362667 13.858133 18.141867 13.858133h182.272v25.019733H317.2352c-23.8592 0-43.264-17.373867-43.264-38.843733v-266.24L512 247.381333l238.0288 175.9744v174.2848z"  /></svg>