<?xml version="1.0" standalone="no"?><!DOCTYPE svg PUBLIC "-//W3C//DTD SVG 1.1//EN" "http://www.w3.org/Graphics/SVG/1.1/DTD/svg11.dtd"><svg class="icon" width="64px" height="64.00px" viewBox="0 0 1024 1024" version="1.1" xmlns="http://www.w3.org/2000/svg"><path d="M512 512m-512 0a512 512 0 1 0 1024 0 512 512 0 1 0-1024 0Z" fill="#FFBE38" /><path d="M466.087564 2.029382A518.050909 518.050909 0 0 1 512 0c282.763636 0 512 229.227055 512 512 0 8.685382-0.195491 17.314909-0.633018 25.897891-15.127273 1.349818-30.440727 2.029382-45.912437 2.029382-282.763636 0-512-229.227055-512-512 0-8.685382 0.2048-17.314909 0.633019-25.897891z" fill="#FFFFFF" opacity=".1" /><path d="M218.763636 928.470109V418.909091H158.254545v-55.854546h218.763637v269.963637l269.963636-269.963637h223.418182l-601.441745 597.150255a513.135709 513.135709 0 0 1-50.194619-31.744zM599.2448 1017.371927a512.968145 512.968145 0 0 1-63.972073 6.292946V744.727273h63.972073v272.644654z" fill="#FFF6EA" /><path d="M715.859782 983.803345a508.909382 508.909382 0 0 1-63.981382 22.146328V744.727273h119.389091c22.946909 0 42.496 4.375273 58.647273 13.144436 16.160582 8.676073 28.4672 20.740655 36.938472 36.203055 8.564364 15.36 12.855855 33.093818 12.855855 53.192145 0 10.361018-1.154327 20.089018-3.453673 29.193309a513.954909 513.954909 0 0 1-92.038982 72.145455c-4.701091 0.400291-9.560436 0.605091-14.578036 0.605091h-53.778618v34.592581z m43.436218-85.867054h-43.436218v-100.910546h43.138327c12.409018 0 22.658327 2.122473 30.729309 6.35811 8.080291 4.133236 14.084655 9.997964 18.031709 17.584872 4.030836 7.484509 6.050909 16.244364 6.050909 26.298182 0 9.942109-2.020073 18.757818-6.050909 26.437818-3.947055 7.586909-9.951418 13.554036-18.031709 17.882764-7.977891 4.235636-18.1248 6.358109-30.440727 6.358109z" fill="#FFF6EA" /><path d="M716.8 797.323636h52.363636a50.036364 50.036364 0 0 1 0 100.072728H716.8V797.323636z" fill="#FFBE38" /></svg>