<?xml version="1.0" standalone="no"?><!DOCTYPE svg PUBLIC "-//W3C//DTD SVG 1.1//EN" "http://www.w3.org/Graphics/SVG/1.1/DTD/svg11.dtd"><svg class="icon" width="64px" height="64.00px" viewBox="0 0 1024 1024" version="1.1" xmlns="http://www.w3.org/2000/svg"><path d="M0 0h1024v1024H0V0z" fill="#202425" opacity=".01" /><path d="M423.2192 90.385067a119.466667 119.466667 0 0 1 177.595733 0L934.126933 460.8H89.838933l333.380267-370.414933z m101.4784 68.5056a17.066667 17.066667 0 0 0-25.3952 0L319.761067 358.4h384.477866l-179.541333-199.509333z" fill="#FFAA44" /><path d="M52.565333 424.413867A68.266667 68.266667 0 0 1 119.261867 341.333333h785.544533a68.266667 68.266667 0 0 1 66.628267 83.080534l-94.3104 424.413866A136.533333 136.533333 0 0 1 743.799467 955.733333H280.234667a136.533333 136.533333 0 0 1-133.290667-106.9056L52.599467 424.413867z" fill="#FF7744" /><path d="M496.605867 441.890133a17.066667 17.066667 0 0 1 30.788266 0L576.853333 545.450667a17.066667 17.066667 0 0 0 13.175467 9.557333l113.800533 15.018667a17.066667 17.066667 0 0 1 9.5232 29.2864l-83.2512 79.018666a17.066667 17.066667 0 0 0-5.051733 15.496534l20.923733 112.8448a17.066667 17.066667 0 0 1-24.917333 18.090666l-100.864-54.715733a17.066667 17.066667 0 0 0-16.315733 0l-100.864 54.715733a17.066667 17.066667 0 0 1-24.917334-18.090666l20.8896-112.8448a17.066667 17.066667 0 0 0-5.0176-15.496534l-83.217066-79.018666a17.066667 17.066667 0 0 1 9.489066-29.2864l113.800534-15.018667a17.066667 17.066667 0 0 0 13.175466-9.557333l49.425067-103.560534z" fill="#FFFFFF" /></svg>