<?xml version="1.0" standalone="no"?><!DOCTYPE svg PUBLIC "-//W3C//DTD SVG 1.1//EN" "http://www.w3.org/Graphics/SVG/1.1/DTD/svg11.dtd"><svg class="icon" width="64px" height="63.94px" viewBox="0 0 1025 1024" version="1.1" xmlns="http://www.w3.org/2000/svg"><path fill="#1296db" d="M1002.213737 385.795959L538.797841 684.723696a48.745476 48.745476 0 0 1-52.529372 0L22.852573 385.795959a46.742237 46.742237 0 0 1 0-79.239221L486.268469 7.851583a47.855148 47.855148 0 0 1 52.529372 0L1002.213737 306.556738a46.742237 46.742237 0 0 1 0 79.239221z"  /><path fill="#1296db" d="M1002.213737 638.204041l-3.783896-2.448403-422.905956 273.108215-6.900045 3.783896L512.533155 948.260882 457.110217 912.647749l-6.900045-3.783896-422.905957-273.108215-4.451642 2.448403a46.742237 46.742237 0 0 0 0 79.239221l463.415896 298.705155a47.855148 47.855148 0 0 0 52.529372 0L1002.213737 717.443262a46.742237 46.742237 0 0 0 0-79.239221z"  /><path fill="#1296db" d="M1002.213737 476.164285l-3.783896-2.448403-422.905956 273.108215-6.900045 3.783896-56.090685 35.613133-55.422938-35.613133-6.900045-3.783896-422.905957-273.108215-4.451642 2.448403A46.742237 46.742237 0 0 0 22.852573 556.516417l463.415896 297.592244a47.855148 47.855148 0 0 0 52.529372 0L1002.213737 556.516417a46.742237 46.742237 0 0 0 0-80.352132z"  /></svg>