<?xml version="1.0" standalone="no"?><!DOCTYPE svg PUBLIC "-//W3C//DTD SVG 1.1//EN" "http://www.w3.org/Graphics/SVG/1.1/DTD/svg11.dtd"><svg class="icon" width="64px" height="52.10px" viewBox="0 0 1258 1024" version="1.1" xmlns="http://www.w3.org/2000/svg"><path d="M746.917647 0H380.892115a155.073842 155.073842 0 0 0-111.243054 47.162954L17.686108 305.277597a62.285857 62.285857 0 0 0 0 86.892616L507.514393 894.814518a78.434043 78.434043 0 0 0 112.524656 0L1110.123655 392.170213a62.285857 62.285857 0 0 0 0-86.892616L858.160701 47.162954A155.073842 155.073842 0 0 0 746.917647 0z m0 0" fill="#FFA820" /><path d="M17.686108 305.277597a62.285857 62.285857 0 0 0 0 86.892616l10.509136 10.765457a510.590238 510.590238 0 0 1 25.63204-134.824531z m1092.437547 0l-123.802754-126.878598a510.077597 510.077597 0 0 1 66.386984 252.475594v20.505632l57.67209-59.210012a62.285857 62.285857 0 0 0 0-86.892616z m0 0" fill="#FFB35A" /><path d="M135.849812 184.038048l-82.022528 84.073091a510.590238 510.590238 0 0 0-25.63204 134.824531l49.982478 51.26408C76.89612 438.564205 76.89612 422.67234 76.89612 407.805757a441.38373 441.38373 0 0 1 58.953692-223.767709z m850.471089-5.639049l-128.1602-131.236045A155.073842 155.073842 0 0 0 746.917647 0H692.065081a442.665332 442.665332 0 0 1 232.482604 582.10363l128.1602-130.723405v-20.505632a510.077597 510.077597 0 0 0-66.386984-252.475594zM461.376721 845.601001l46.393992 49.213517a78.434043 78.434043 0 0 0 112.524656 0l82.79149-84.842052a441.89637 441.89637 0 0 1-184.807009 40.498623 432.925156 432.925156 0 0 1-56.903129-4.870088z m0 0" fill="#FFB65D" /><path d="M692.065081 0H380.892115a155.073842 155.073842 0 0 0-111.243054 47.162954L135.849812 184.038048A441.38373 441.38373 0 0 0 76.89612 407.805757c0 16.148185 0 31.78373 2.306884 47.419274l77.15244 78.946684a371.40826 371.40826 0 1 1 180.705883 185.063329L461.376721 845.601001a432.925156 432.925156 0 0 0 57.67209 3.844806 441.89637 441.89637 0 0 0 184.807009-40.498623l221.460826-226.843554A442.665332 442.665332 0 0 0 692.065081 0z m0 0" fill="#FFB960" /><path d="M868.669837 382.173717A372.177222 372.177222 0 1 0 156.355444 534.171715l180.705883 185.063329a372.689862 372.689862 0 0 0 531.60851-337.061327z m-696.166207-23.581477a301.945432 301.945432 0 1 1 301.945431 301.945432A302.201752 302.201752 0 0 1 172.50363 358.59224z m0 0" fill="#FFBE64" /><path d="M776.394493 358.59224a301.945432 301.945432 0 1 0-301.945432 301.945432 301.945432 301.945432 0 0 0 301.945432-301.945432z m-323.732666 207.619525a230.68836 230.68836 0 1 1 230.688361-230.688361 230.68836 230.68836 0 0 1-230.688361 230.688361z m0 0" fill="#FFC269" /><path d="M452.661827 102.784481a230.68836 230.68836 0 1 0 230.688361 230.68836 230.68836 230.68836 0 0 0-230.688361-230.68836z m-21.787234 369.101376a161.481852 161.481852 0 1 1 161.481853-161.481852 161.481852 161.481852 0 0 1-161.481853 161.481852z m0 0" fill="#FFC76D" /><path d="M269.392741 310.404005a161.481852 161.481852 0 1 0 161.481852-161.481852 161.481852 161.481852 0 0 0-161.481852 161.481852z m0 0" fill="#FFCA70" /><path d="M746.917647 21.787234a133.286608 133.286608 0 0 1 95.607509 40.498623L1094.48811 320.400501a40.242303 40.242303 0 0 1 0 56.390488L604.659825 878.666333a56.903129 56.903129 0 0 1-81.509888 0L33.321652 376.790989a40.242303 40.242303 0 0 1 0-56.390488l251.962954-258.114644A133.286608 133.286608 0 0 1 380.892115 21.787234h366.025532m0-21.787234H380.892115a155.073842 155.073842 0 0 0-111.243054 47.162954L17.686108 305.277597a62.285857 62.285857 0 0 0 0 86.892616l490.084605 502.644305a76.89612 76.89612 0 0 0 56.134168 23.837797 78.946683 78.946683 0 0 0 56.390488-23.837797L1110.123655 392.170213a62.285857 62.285857 0 0 0 0-86.892616L858.160701 47.162954A155.073842 155.073842 0 0 0 746.917647 0z m0 0" fill="#FF8A52" /><path d="M210.95169 241.966458a22.043554 22.043554 0 0 1-15.379224-37.422778l105.860325-106.629287A21.787234 21.787234 0 0 1 333.216521 97.658073a22.043554 22.043554 0 0 1 0 31.014768L226.587234 235.302128a21.274593 21.274593 0 0 1-15.635544 6.66433zM150.716395 302.458073a22.812516 22.812516 0 0 1-15.379224-6.15169 22.043554 22.043554 0 0 1 0-31.014768l8.971214-8.971214a21.787234 21.787234 0 0 1 31.014769 0 22.043554 22.043554 0 0 1 0 31.014768l-8.971214 8.971214a22.043554 22.043554 0 0 1-15.635545 6.40801z m0 0" fill="#FFFFFF" /><path d="M844.063079 268.8801l-4.870088 214.283855L563.904881 734.870588z" fill="#FF8A52" /><path d="M844.063079 268.8801L563.904881 734.870588l84.842053-358.84856z" fill="#FF8A52" /><path d="M803.051815 337.061327l2.306883 39.985982-33.577972 11.790739z" fill="#FF8B53" /><path d="M803.051815 337.061327l-34.090613 16.404505 4.101126 35.372216z" fill="#FFA47B" /><path d="M563.904881 734.870588l-275.28811-251.706633-4.870088-214.283855zM479.062829 374.740426l84.842052 358.84856-280.158198-464.708886z" fill="#FF8A52" /><path d="M356.029036 388.838048l-33.577972-11.790739 2.306883-39.985982z" fill="#FF8B53" /><path d="M356.029036 388.838048l4.101127-35.372216-35.372216-16.404505z" fill="#FFA47B" /><path d="M738.202753 172.247309l54.083605 226.074593L563.904881 734.870588z" fill="#FFCB71" /><path d="M738.202753 172.247309L563.904881 734.870588l-4.613767-400.116145z" fill="#FFCB71" /><path d="M713.852315 250.168711l14.353943 44.85607-38.19174 32.29637z" fill="#FF8741" /><path d="M713.852315 250.168711l-38.9607 25.63204 15.122903 51.26408z" fill="#FFE971" /><path d="M776.394493 332.447559l15.891865 65.874343L563.904881 734.870588l28.195244-185.83229z" fill="#FFB259" /><path d="M563.904881 734.870588l-228.381477-336.548686 54.083605-226.074593z" fill="#FFCB71" /><path d="M568.518648 334.754443L563.904881 734.870588 389.607009 172.247309z" fill="#FFCB71" /><path d="M437.795244 327.321151l-38.19174-32.29637 14.353943-44.85607z" fill="#FF8741" /><path d="M437.795244 327.321151l15.122904-51.26408-38.960701-25.63204z" fill="#FFE971" /><path d="M535.709637 549.038298l28.195244 185.83229-228.381477-336.548686 15.891865-65.874343z" fill="#FFB259" /><path d="M563.904881 101.759199l-128.1602 216.590738 128.1602 416.520651z" fill="#FFFCB0" /><path d="M563.904881 101.759199v633.111389l129.441802-411.906883z" fill="#FFD96F" /><path d="M563.904881 205.312641l-47.162954 68.181226L563.904881 330.909637z m0 0" fill="#FF8BA5" /><path d="M563.904881 205.312641l44.59975 68.181226L563.904881 330.909637z m0 0" fill="#F05A57" /></svg>